<svg width="42" height="45" viewBox="0 0 42 45" fill="none" xmlns="http://www.w3.org/2000/svg">
<mask id="mask0_183_53" style="mask-type:alpha" maskUnits="userSpaceOnUse" x="0" y="0" width="42" height="45">
<rect width="42" height="44.0796" fill="#D9D9D9"/>
</mask>
<g mask="url(#mask0_183_53)">
<path d="M22.2116 20.8176C22.8555 20.0971 23.3081 19.2623 23.5695 18.3134C23.8309 17.3645 23.9616 16.3932 23.9616 15.3995C23.9616 14.4058 23.8309 13.4345 23.5695 12.4856C23.3081 11.5366 22.8555 10.7019 22.2116 9.98136C23.5353 10.1085 24.629 10.6901 25.4928 11.7262C26.3566 12.7623 26.7885 13.9867 26.7885 15.3995C26.7885 16.8123 26.3566 18.0367 25.4928 19.0728C24.629 20.1089 23.5353 20.6905 22.2116 20.8176ZM30.9616 34.1899V31.0817C30.9616 30.1811 30.8068 29.3243 30.4972 28.5113C30.1875 27.6983 29.6984 27.0269 29.0298 26.4971C30.2257 26.8833 31.3178 27.436 32.306 28.1554C33.2944 28.8747 33.7885 29.8502 33.7885 31.0817V34.1899H30.9616ZM33.7885 22.958V19.2847H30.2885V17.4481H33.7885V13.7748H35.5385V17.4481H39.0385V19.2847H35.5385V22.958H33.7885ZM15.2116 20.9095C13.7678 20.9095 12.5319 20.37 11.5037 19.2909C10.4756 18.2119 9.96156 16.9148 9.96156 15.3995C9.96156 13.8843 10.4756 12.5871 11.5037 11.5081C12.5319 10.429 13.7678 9.88953 15.2116 9.88953C16.6553 9.88953 17.8912 10.429 18.9194 11.5081C19.9475 12.5871 20.4616 13.8843 20.4616 15.3995C20.4616 16.9148 19.9475 18.2119 18.9194 19.2909C17.8912 20.37 16.6553 20.9095 15.2116 20.9095ZM2.96156 34.1899V31.1664C2.96156 30.4082 3.17189 29.6989 3.59256 29.0384C4.01323 28.3779 4.57918 27.8652 5.29041 27.5002C6.94168 26.669 8.59408 26.0456 10.2476 25.63C11.9011 25.2144 13.5558 25.0066 15.2116 25.0066C16.8673 25.0066 18.522 25.2144 20.1755 25.63C21.829 26.0456 23.4814 26.669 25.1327 27.5002C25.8439 27.8652 26.4099 28.3779 26.8305 29.0384C27.2512 29.6989 27.4616 30.4082 27.4616 31.1664V34.1899H2.96156ZM15.2116 19.0728C16.1741 19.0728 16.998 18.7131 17.6834 17.9938C18.3688 17.2744 18.7116 16.4097 18.7116 15.3995C18.7116 14.3894 18.3688 13.5246 17.6834 12.8053C16.998 12.0859 16.1741 11.7262 15.2116 11.7262C14.2491 11.7262 13.4251 12.0859 12.7397 12.8053C12.0543 13.5246 11.7116 14.3894 11.7116 15.3995C11.7116 16.4097 12.0543 17.2744 12.7397 17.9938C13.4251 18.7131 14.2491 19.0728 15.2116 19.0728ZM4.71156 32.3532H25.7116V31.1664C25.7116 30.7591 25.5865 30.3764 25.3363 30.0185C25.0862 29.6606 24.7401 29.358 24.2981 29.1108C22.8577 28.3785 21.3726 27.8175 19.8428 27.4278C18.313 27.0381 16.7692 26.8432 15.2116 26.8432C13.6539 26.8432 12.1102 27.0381 10.5804 27.4278C9.05051 27.8175 7.5654 28.3785 6.12503 29.1108C5.68304 29.358 5.33696 29.6606 5.0868 30.0185C4.83664 30.3764 4.71156 30.7591 4.71156 31.1664V32.3532Z" fill="#1C1B1F"/>
</g>
</svg>
